<svg viewBox="0 0 28 28" xmlns="http://www.w3.org/2000/svg">
  <path fill="#ffffff" d="M 26.562 10.181 L 12.325 24.260 C 9.966 26.593 6.141 26.593 3.782 24.260 C 1.423 21.928 1.423 18.146 3.782 15.813 L 16.596 3.141 C 18.168 1.586 20.718 1.586 22.291 3.141 C 23.863 4.696 23.863 7.218 22.291 8.772 L 9.477 21.444 C 8.691 22.222 7.416 22.222 6.629 21.444 C 5.843 20.667 5.843 19.406 6.629 18.628 L 18.020 7.365 L 16.596 5.957 L 5.206 17.221 C 3.633 18.775 3.633 21.297 5.206 22.853 C 6.778 24.407 9.328 24.407 10.901 22.852 L 23.714 10.181 C 26.073 7.849 26.074 4.065 23.715 1.733 C 21.355 -0.600 17.531 -0.600 15.172 1.733 L 1.646 15.108 L 1.696 15.157 C -0.762 18.281 -0.545 22.797 2.358 25.668 C 5.262 28.539 9.828 28.754 12.987 26.323 L 13.036 26.372 L 27.986 11.589 L 26.562 10.181"/>
</svg>
